<svg xmlns="http://www.w3.org/2000/svg" xmlns:xlink="http://www.w3.org/1999/xlink" style="margin:auto;background:#1e576c;display:block;z-index:1;position:relative" width="1084" height="322" preserveAspectRatio="xMidYMid" viewBox="0 0 1084 322">
<defs>
  <pattern id="pid-0.04370275607904017" x="0" y="0" width="204.8" height="204.8" patternUnits="userSpaceOnUse">
    <g transform="scale(0.8)"><g> <line x1="16" y1="-272" x2="16" y2="-240" stroke="#247074" stroke-width="25" stroke-linecap="round"></line> <line x1="16" y1="-16" x2="16" y2="16" stroke="#247074" stroke-width="25" stroke-linecap="round"></line> <line x1="16" y1="240" x2="16" y2="272" stroke="#247074" stroke-width="25" stroke-linecap="round"></line> <line x1="16" y1="-208" x2="16" y2="-144" stroke="#204651" stroke-width="25" stroke-linecap="round"></line> <line x1="16" y1="48" x2="16" y2="112" stroke="#204651" stroke-width="25" stroke-linecap="round"></line> <line x1="16" y1="304" x2="16" y2="368" stroke="#204651" stroke-width="25" stroke-linecap="round"></line> <line x1="16" y1="-112" x2="16" y2="-80" stroke="#309d8e" stroke-width="25" stroke-linecap="round"></line> <line x1="16" y1="144" x2="16" y2="176" stroke="#309d8e" stroke-width="25" stroke-linecap="round"></line> <line x1="16" y1="400" x2="16" y2="432" stroke="#309d8e" stroke-width="25" stroke-linecap="round"></line> <line x1="16" y1="-48" x2="16" y2="16" stroke="#247074" stroke-width="25" stroke-linecap="round"></line> <line x1="16" y1="208" x2="16" y2="272" stroke="#247074" stroke-width="25" stroke-linecap="round"></line> <line x1="16" y1="464" x2="16" y2="528" stroke="#247074" stroke-width="25" stroke-linecap="round"></line> <animateTransform attributeName="transform" type="translate" repeatCount="indefinite" dur="11.11111111111111s" keyTimes="0;1" values="0 0;0 256"></animateTransform>
</g> <g> <line x1="48" y1="-240" x2="48" y2="-176" stroke="#204651" stroke-width="25" stroke-linecap="round"></line> <line x1="48" y1="16" x2="48" y2="80" stroke="#204651" stroke-width="25" stroke-linecap="round"></line> <line x1="48" y1="272" x2="48" y2="336" stroke="#204651" stroke-width="25" stroke-linecap="round"></line> <line x1="48" y1="-144" x2="48" y2="-80" stroke="#55c89d" stroke-width="25" stroke-linecap="round"></line> <line x1="48" y1="112" x2="48" y2="176" stroke="#55c89d" stroke-width="25" stroke-linecap="round"></line> <line x1="48" y1="368" x2="48" y2="432" stroke="#55c89d" stroke-width="25" stroke-linecap="round"></line> <line x1="48" y1="-48" x2="48" y2="-16" stroke="#247074" stroke-width="25" stroke-linecap="round"></line> <line x1="48" y1="208" x2="48" y2="240" stroke="#247074" stroke-width="25" stroke-linecap="round"></line> <line x1="48" y1="464" x2="48" y2="496" stroke="#247074" stroke-width="25" stroke-linecap="round"></line> <animateTransform attributeName="transform" type="translate" repeatCount="indefinite" dur="11.11111111111111s" keyTimes="0;1" values="0 0;0 -256"></animateTransform>
</g> <g> <line x1="80" y1="-240" x2="80" y2="-208" stroke="#8df9a2" stroke-width="25" stroke-linecap="round"></line> <line x1="80" y1="16" x2="80" y2="48" stroke="#8df9a2" stroke-width="25" stroke-linecap="round"></line> <line x1="80" y1="272" x2="80" y2="304" stroke="#8df9a2" stroke-width="25" stroke-linecap="round"></line> <line x1="80" y1="-176" x2="80" y2="-144" stroke="#247074" stroke-width="25" stroke-linecap="round"></line> <line x1="80" y1="80" x2="80" y2="112" stroke="#247074" stroke-width="25" stroke-linecap="round"></line> <line x1="80" y1="336" x2="80" y2="368" stroke="#247074" stroke-width="25" stroke-linecap="round"></line> <line x1="80" y1="-112" x2="80" y2="-80" stroke="#309d8e" stroke-width="25" stroke-linecap="round"></line> <line x1="80" y1="144" x2="80" y2="176" stroke="#309d8e" stroke-width="25" stroke-linecap="round"></line> <line x1="80" y1="400" x2="80" y2="432" stroke="#309d8e" stroke-width="25" stroke-linecap="round"></line> <line x1="80" y1="-48" x2="80" y2="-16" stroke="#15212b" stroke-width="25" stroke-linecap="round"></line> <line x1="80" y1="208" x2="80" y2="240" stroke="#15212b" stroke-width="25" stroke-linecap="round"></line> <line x1="80" y1="464" x2="80" y2="496" stroke="#15212b" stroke-width="25" stroke-linecap="round"></line> <animateTransform attributeName="transform" type="translate" repeatCount="indefinite" dur="11.11111111111111s" keyTimes="0;1" values="0 0;0 256"></animateTransform>
</g> <g> <line x1="112" y1="-272" x2="112" y2="-208" stroke="#204651" stroke-width="25" stroke-linecap="round"></line> <line x1="112" y1="-16" x2="112" y2="48" stroke="#204651" stroke-width="25" stroke-linecap="round"></line> <line x1="112" y1="240" x2="112" y2="304" stroke="#204651" stroke-width="25" stroke-linecap="round"></line> <line x1="112" y1="-176" x2="112" y2="-144" stroke="#55c89d" stroke-width="25" stroke-linecap="round"></line> <line x1="112" y1="80" x2="112" y2="112" stroke="#55c89d" stroke-width="25" stroke-linecap="round"></line> <line x1="112" y1="336" x2="112" y2="368" stroke="#55c89d" stroke-width="25" stroke-linecap="round"></line> <line x1="112" y1="-112" x2="112" y2="-48" stroke="#204651" stroke-width="25" stroke-linecap="round"></line> <line x1="112" y1="144" x2="112" y2="208" stroke="#204651" stroke-width="25" stroke-linecap="round"></line> <line x1="112" y1="400" x2="112" y2="464" stroke="#204651" stroke-width="25" stroke-linecap="round"></line> <line x1="112" y1="-16" x2="112" y2="48" stroke="#204651" stroke-width="25" stroke-linecap="round"></line> <line x1="112" y1="240" x2="112" y2="304" stroke="#204651" stroke-width="25" stroke-linecap="round"></line> <line x1="112" y1="496" x2="112" y2="560" stroke="#204651" stroke-width="25" stroke-linecap="round"></line> <animateTransform attributeName="transform" type="translate" repeatCount="indefinite" dur="16.666666666666668s" keyTimes="0;1" values="0 0;0 256"></animateTransform>
</g> <g> <line x1="144" y1="-240" x2="144" y2="-176" stroke="#204651" stroke-width="25" stroke-linecap="round"></line> <line x1="144" y1="16" x2="144" y2="80" stroke="#204651" stroke-width="25" stroke-linecap="round"></line> <line x1="144" y1="272" x2="144" y2="336" stroke="#204651" stroke-width="25" stroke-linecap="round"></line> <line x1="144" y1="-144" x2="144" y2="-80" stroke="#247074" stroke-width="25" stroke-linecap="round"></line> <line x1="144" y1="112" x2="144" y2="176" stroke="#247074" stroke-width="25" stroke-linecap="round"></line> <line x1="144" y1="368" x2="144" y2="432" stroke="#247074" stroke-width="25" stroke-linecap="round"></line> <line x1="144" y1="-48" x2="144" y2="-16" stroke="#8df9a2" stroke-width="25" stroke-linecap="round"></line> <line x1="144" y1="208" x2="144" y2="240" stroke="#8df9a2" stroke-width="25" stroke-linecap="round"></line> <line x1="144" y1="464" x2="144" y2="496" stroke="#8df9a2" stroke-width="25" stroke-linecap="round"></line> <animateTransform attributeName="transform" type="translate" repeatCount="indefinite" dur="33.333333333333336s" keyTimes="0;1" values="0 0;0 -256"></animateTransform>
</g> <g> <line x1="176" y1="-240" x2="176" y2="-176" stroke="#204651" stroke-width="25" stroke-linecap="round"></line> <line x1="176" y1="16" x2="176" y2="80" stroke="#204651" stroke-width="25" stroke-linecap="round"></line> <line x1="176" y1="272" x2="176" y2="336" stroke="#204651" stroke-width="25" stroke-linecap="round"></line> <line x1="176" y1="-144" x2="176" y2="-80" stroke="#8df9a2" stroke-width="25" stroke-linecap="round"></line> <line x1="176" y1="112" x2="176" y2="176" stroke="#8df9a2" stroke-width="25" stroke-linecap="round"></line> <line x1="176" y1="368" x2="176" y2="432" stroke="#8df9a2" stroke-width="25" stroke-linecap="round"></line> <line x1="176" y1="-48" x2="176" y2="-16" stroke="#55c89d" stroke-width="25" stroke-linecap="round"></line> <line x1="176" y1="208" x2="176" y2="240" stroke="#55c89d" stroke-width="25" stroke-linecap="round"></line> <line x1="176" y1="464" x2="176" y2="496" stroke="#55c89d" stroke-width="25" stroke-linecap="round"></line> <animateTransform attributeName="transform" type="translate" repeatCount="indefinite" dur="16.666666666666668s" keyTimes="0;1" values="0 0;0 -256"></animateTransform>
</g> <g> <line x1="208" y1="-272" x2="208" y2="-240" stroke="#309d8e" stroke-width="25" stroke-linecap="round"></line> <line x1="208" y1="-16" x2="208" y2="16" stroke="#309d8e" stroke-width="25" stroke-linecap="round"></line> <line x1="208" y1="240" x2="208" y2="272" stroke="#309d8e" stroke-width="25" stroke-linecap="round"></line> <line x1="208" y1="-208" x2="208" y2="-176" stroke="#15212b" stroke-width="25" stroke-linecap="round"></line> <line x1="208" y1="48" x2="208" y2="80" stroke="#15212b" stroke-width="25" stroke-linecap="round"></line> <line x1="208" y1="304" x2="208" y2="336" stroke="#15212b" stroke-width="25" stroke-linecap="round"></line> <line x1="208" y1="-144" x2="208" y2="-80" stroke="#15212b" stroke-width="25" stroke-linecap="round"></line> <line x1="208" y1="112" x2="208" y2="176" stroke="#15212b" stroke-width="25" stroke-linecap="round"></line> <line x1="208" y1="368" x2="208" y2="432" stroke="#15212b" stroke-width="25" stroke-linecap="round"></line> <line x1="208" y1="-48" x2="208" y2="16" stroke="#309d8e" stroke-width="25" stroke-linecap="round"></line> <line x1="208" y1="208" x2="208" y2="272" stroke="#309d8e" stroke-width="25" stroke-linecap="round"></line> <line x1="208" y1="464" x2="208" y2="528" stroke="#309d8e" stroke-width="25" stroke-linecap="round"></line> <animateTransform attributeName="transform" type="translate" repeatCount="indefinite" dur="33.333333333333336s" keyTimes="0;1" values="0 0;0 256"></animateTransform>
</g> <g> <line x1="240" y1="-272" x2="240" y2="-240" stroke="#15212b" stroke-width="25" stroke-linecap="round"></line> <line x1="240" y1="-16" x2="240" y2="16" stroke="#15212b" stroke-width="25" stroke-linecap="round"></line> <line x1="240" y1="240" x2="240" y2="272" stroke="#15212b" stroke-width="25" stroke-linecap="round"></line> <line x1="240" y1="-208" x2="240" y2="-112" stroke="#55c89d" stroke-width="25" stroke-linecap="round"></line> <line x1="240" y1="48" x2="240" y2="144" stroke="#55c89d" stroke-width="25" stroke-linecap="round"></line> <line x1="240" y1="304" x2="240" y2="400" stroke="#55c89d" stroke-width="25" stroke-linecap="round"></line> <line x1="240" y1="-80" x2="240" y2="16" stroke="#15212b" stroke-width="25" stroke-linecap="round"></line> <line x1="240" y1="176" x2="240" y2="272" stroke="#15212b" stroke-width="25" stroke-linecap="round"></line> <line x1="240" y1="432" x2="240" y2="528" stroke="#15212b" stroke-width="25" stroke-linecap="round"></line> <animateTransform attributeName="transform" type="translate" repeatCount="indefinite" dur="16.666666666666668s" keyTimes="0;1" values="0 0;0 -256"></animateTransform>
</g></g>
  </pattern>
</defs>
<rect x="0" y="0" width="1084" height="1322" fill="url(#pid-0.04370275607904017)"></rect>
</svg>